<svg viewBox="0 0 512 512" xmlns="http://www.w3.org/2000/svg">
  <defs>
    <clipPath id="inner">
      <circle cx="256" cy="256" r="218"/>
    </clipPath>
<filter id="iconglow" x="-60%" y="-60%" width="220%" height="220%">
      <feGaussianBlur stdDeviation="16" result="big"/>
      <feGaussianBlur in="SourceGraphic" stdDeviation="6" result="med"/>
      <feMerge>
        <feMergeNode in="big"/>
        <feMergeNode in="med"/>
        <feMergeNode in="SourceGraphic"/>
      </feMerge>
    </filter>
  </defs>

  <circle cx="256" cy="256" r="218" fill="#f06aab"/>

  <g clip-path="url(#inner)">
    <polygon points="-154.0,12.0 -72.0,12.0 -113.0,-59.0" fill="#eb62a4"/>
    <polygon points="-113.0,-59.0 -31.0,-59.0 -72.0,12.0" fill="#f06aab"/>
    <polygon points="-72.0,12.0 10.0,12.0 -31.0,-59.0" fill="#f378b0"/>
    <polygon points="-31.0,-59.0 51.0,-59.0 10.0,12.0" fill="#e85c9e"/>
    <polygon points="10.0,12.0 92.0,12.0 51.0,-59.0" fill="#e75ea2"/>
    <polygon points="51.0,-59.0 133.0,-59.0 92.0,12.0" fill="#f274b0"/>
    <polygon points="92.0,12.0 174.0,12.0 133.0,-59.0" fill="#f070ae"/>
    <polygon points="133.0,-59.0 215.0,-59.0 174.0,12.0" fill="#e95ca0"/>
    <polygon points="174.0,12.0 256.0,12.0 215.0,-59.0" fill="#e85aa0"/>
    <polygon points="215.0,-59.0 297.0,-59.0 256.0,12.0" fill="#ed6aaa"/>
    <polygon points="256.0,12.0 338.0,12.0 297.0,-59.0" fill="#f27cb2"/>
    <polygon points="297.0,-59.0 379.0,-59.0 338.0,12.0" fill="#eb62a4"/>
    <polygon points="338.0,12.0 420.0,12.0 379.0,-59.0" fill="#e958a0"/>
    <polygon points="379.0,-59.0 461.0,-59.0 420.0,12.0" fill="#f378b0"/>
    <polygon points="420.0,12.0 502.0,12.0 461.0,-59.0" fill="#ec66a6"/>
    <polygon points="461.0,-59.0 543.0,-59.0 502.0,12.0" fill="#e75ea2"/>
    <polygon points="502.0,12.0 584.0,12.0 543.0,-59.0" fill="#ea60a2"/>
    <polygon points="543.0,-59.0 625.0,-59.0 584.0,12.0" fill="#f070ae"/>
    <polygon points="584.0,12.0 666.0,12.0 625.0,-59.0" fill="#f47cb5"/>
    <polygon points="625.0,-59.0 707.0,-59.0 666.0,12.0" fill="#e85aa0"/>
    <polygon points="666.0,12.0 748.0,12.0 707.0,-59.0" fill="#f06aab"/>
    <polygon points="707.0,-59.0 789.0,-59.0 748.0,12.0" fill="#f27cb2"/>
    <polygon points="748.0,12.0 830.0,12.0 789.0,-59.0" fill="#e85c9e"/>
    <polygon points="789.0,-59.0 871.0,-59.0 830.0,12.0" fill="#e958a0"/>
    <polygon points="-154.0,83.0 -72.0,83.0 -113.0,12.0" fill="#f47cb5"/>
    <polygon points="-113.0,12.0 -31.0,12.0 -72.0,83.0" fill="#e85aa0"/>
    <polygon points="-72.0,83.0 10.0,83.0 -31.0,12.0" fill="#f06aab"/>
    <polygon points="-31.0,12.0 51.0,12.0 10.0,83.0" fill="#f27cb2"/>
    <polygon points="10.0,83.0 92.0,83.0 51.0,12.0" fill="#e85c9e"/>
    <polygon points="51.0,12.0 133.0,12.0 92.0,83.0" fill="#e958a0"/>
    <polygon points="92.0,83.0 174.0,83.0 133.0,12.0" fill="#f06aab"/>
    <polygon points="133.0,12.0 215.0,12.0 174.0,83.0" fill="#f27cb2"/>
    <polygon points="174.0,83.0 256.0,83.0 215.0,12.0" fill="#f47cb5"/>
    <polygon points="215.0,12.0 297.0,12.0 256.0,83.0" fill="#e85aa0"/>
    <polygon points="256.0,83.0 338.0,83.0 297.0,12.0" fill="#ea60a2"/>
    <polygon points="297.0,12.0 379.0,12.0 338.0,83.0" fill="#f070ae"/>
    <polygon points="338.0,83.0 420.0,83.0 379.0,12.0" fill="#ec66a6"/>
    <polygon points="379.0,12.0 461.0,12.0 420.0,83.0" fill="#e75ea2"/>
    <polygon points="420.0,83.0 502.0,83.0 461.0,12.0" fill="#e958a0"/>
    <polygon points="461.0,12.0 543.0,12.0 502.0,83.0" fill="#f378b0"/>
    <polygon points="502.0,83.0 584.0,83.0 543.0,12.0" fill="#f27cb2"/>
    <polygon points="543.0,12.0 625.0,12.0 584.0,83.0" fill="#eb62a4"/>
    <polygon points="584.0,83.0 666.0,83.0 625.0,12.0" fill="#e85aa0"/>
    <polygon points="625.0,12.0 707.0,12.0 666.0,83.0" fill="#ed6aaa"/>
    <polygon points="666.0,83.0 748.0,83.0 707.0,12.0" fill="#f070ae"/>
    <polygon points="707.0,12.0 789.0,12.0 748.0,83.0" fill="#e95ca0"/>
    <polygon points="748.0,83.0 830.0,83.0 789.0,12.0" fill="#e75ea2"/>
    <polygon points="789.0,12.0 871.0,12.0 830.0,83.0" fill="#f274b0"/>
    <polygon points="-154.0,154.0 -72.0,154.0 -113.0,83.0" fill="#e85aa0"/>
    <polygon points="-113.0,83.0 -31.0,83.0 -72.0,154.0" fill="#ed6aaa"/>
    <polygon points="-72.0,154.0 10.0,154.0 -31.0,83.0" fill="#f070ae"/>
    <polygon points="-31.0,83.0 51.0,83.0 10.0,154.0" fill="#e95ca0"/>
    <polygon points="10.0,154.0 92.0,154.0 51.0,83.0" fill="#e75ea2"/>
    <polygon points="51.0,83.0 133.0,83.0 92.0,154.0" fill="#f274b0"/>
    <polygon points="92.0,154.0 174.0,154.0 133.0,83.0" fill="#f378b0"/>
    <polygon points="133.0,83.0 215.0,83.0 174.0,154.0" fill="#e85c9e"/>
    <polygon points="174.0,154.0 256.0,154.0 215.0,83.0" fill="#eb62a4"/>
    <polygon points="215.0,83.0 297.0,83.0 256.0,154.0" fill="#f06aab"/>
    <polygon points="256.0,154.0 338.0,154.0 297.0,83.0" fill="#ed6aaa"/>
    <polygon points="297.0,83.0 379.0,83.0 338.0,154.0" fill="#f47cb5"/>
    <polygon points="338.0,154.0 420.0,154.0 379.0,83.0" fill="#e95ca0"/>
    <polygon points="379.0,83.0 461.0,83.0 420.0,154.0" fill="#ea60a2"/>
    <polygon points="420.0,154.0 502.0,154.0 461.0,83.0" fill="#f274b0"/>
    <polygon points="461.0,83.0 543.0,83.0 502.0,154.0" fill="#ec66a6"/>
    <polygon points="502.0,154.0 584.0,154.0 543.0,83.0" fill="#e85c9e"/>
    <polygon points="543.0,83.0 625.0,83.0 584.0,154.0" fill="#e958a0"/>
    <polygon points="584.0,154.0 666.0,154.0 625.0,83.0" fill="#f06aab"/>
    <polygon points="625.0,83.0 707.0,83.0 666.0,154.0" fill="#f27cb2"/>
    <polygon points="666.0,154.0 748.0,154.0 707.0,83.0" fill="#f47cb5"/>
    <polygon points="707.0,83.0 789.0,83.0 748.0,154.0" fill="#e85aa0"/>
    <polygon points="748.0,154.0 830.0,154.0 789.0,83.0" fill="#ea60a2"/>
    <polygon points="789.0,83.0 871.0,83.0 830.0,154.0" fill="#f070ae"/>
    <polygon points="-154.0,225.0 -72.0,225.0 -113.0,154.0" fill="#f06aab"/>
    <polygon points="-113.0,154.0 -31.0,154.0 -72.0,225.0" fill="#f27cb2"/>
    <polygon points="-72.0,225.0 10.0,225.0 -31.0,154.0" fill="#f47cb5"/>
    <polygon points="-31.0,154.0 51.0,154.0 10.0,225.0" fill="#e85aa0"/>
    <polygon points="10.0,225.0 92.0,225.0 51.0,154.0" fill="#ea60a2"/>
    <polygon points="51.0,154.0 133.0,154.0 92.0,225.0" fill="#f070ae"/>
    <polygon points="92.0,225.0 174.0,225.0 133.0,154.0" fill="#ec66a6"/>
    <polygon points="133.0,154.0 215.0,154.0 174.0,225.0" fill="#e75ea2"/>
    <polygon points="174.0,225.0 256.0,225.0 215.0,154.0" fill="#e958a0"/>
    <polygon points="215.0,154.0 297.0,154.0 256.0,225.0" fill="#f378b0"/>
    <polygon points="256.0,225.0 338.0,225.0 297.0,154.0" fill="#f27cb2"/>
    <polygon points="297.0,154.0 379.0,154.0 338.0,225.0" fill="#eb62a4"/>
    <polygon points="338.0,225.0 420.0,225.0 379.0,154.0" fill="#e85aa0"/>
    <polygon points="379.0,154.0 461.0,154.0 420.0,225.0" fill="#ed6aaa"/>
    <polygon points="420.0,225.0 502.0,225.0 461.0,154.0" fill="#f070ae"/>
    <polygon points="461.0,154.0 543.0,154.0 502.0,225.0" fill="#e95ca0"/>
    <polygon points="502.0,225.0 584.0,225.0 543.0,154.0" fill="#e75ea2"/>
    <polygon points="543.0,154.0 625.0,154.0 584.0,225.0" fill="#f274b0"/>
    <polygon points="584.0,225.0 666.0,225.0 625.0,154.0" fill="#f378b0"/>
    <polygon points="625.0,154.0 707.0,154.0 666.0,225.0" fill="#e85c9e"/>
    <polygon points="666.0,225.0 748.0,225.0 707.0,154.0" fill="#eb62a4"/>
    <polygon points="707.0,154.0 789.0,154.0 748.0,225.0" fill="#f06aab"/>
    <polygon points="748.0,225.0 830.0,225.0 789.0,154.0" fill="#ed6aaa"/>
    <polygon points="789.0,154.0 871.0,154.0 830.0,225.0" fill="#f47cb5"/>
    <polygon points="-154.0,296.1 -72.0,296.1 -113.0,225.0" fill="#f378b0"/>
    <polygon points="-113.0,225.0 -31.0,225.0 -72.0,296.1" fill="#e85c9e"/>
    <polygon points="-72.0,296.1 10.0,296.1 -31.0,225.0" fill="#eb62a4"/>
    <polygon points="-31.0,225.0 51.0,225.0 10.0,296.1" fill="#f06aab"/>
    <polygon points="10.0,296.1 92.0,296.1 51.0,225.0" fill="#ed6aaa"/>
    <polygon points="51.0,225.0 133.0,225.0 92.0,296.1" fill="#f47cb5"/>
    <polygon points="92.0,296.1 174.0,296.1 133.0,225.0" fill="#e95ca0"/>
    <polygon points="133.0,225.0 215.0,225.0 174.0,296.1" fill="#ea60a2"/>
    <polygon points="174.0,296.1 256.0,296.1 215.0,225.0" fill="#f274b0"/>
    <polygon points="215.0,225.0 297.0,225.0 256.0,296.1" fill="#ec66a6"/>
    <polygon points="256.0,296.1 338.0,296.1 297.0,225.0" fill="#e85c9e"/>
    <polygon points="297.0,225.0 379.0,225.0 338.0,296.1" fill="#e958a0"/>
    <polygon points="338.0,296.1 420.0,296.1 379.0,225.0" fill="#f06aab"/>
    <polygon points="379.0,225.0 461.0,225.0 420.0,296.1" fill="#f27cb2"/>
    <polygon points="420.0,296.1 502.0,296.1 461.0,225.0" fill="#f47cb5"/>
    <polygon points="461.0,225.0 543.0,225.0 502.0,296.1" fill="#e85aa0"/>
    <polygon points="502.0,296.1 584.0,296.1 543.0,225.0" fill="#ea60a2"/>
    <polygon points="543.0,225.0 625.0,225.0 584.0,296.1" fill="#f070ae"/>
    <polygon points="584.0,296.1 666.0,296.1 625.0,225.0" fill="#ec66a6"/>
    <polygon points="625.0,225.0 707.0,225.0 666.0,296.1" fill="#e75ea2"/>
    <polygon points="666.0,296.1 748.0,296.1 707.0,225.0" fill="#e958a0"/>
    <polygon points="707.0,225.0 789.0,225.0 748.0,296.1" fill="#f378b0"/>
    <polygon points="748.0,296.1 830.0,296.1 789.0,225.0" fill="#f27cb2"/>
    <polygon points="789.0,225.0 871.0,225.0 830.0,296.1" fill="#eb62a4"/>
    <polygon points="-154.0,367.1 -72.0,367.1 -113.0,296.1" fill="#ec66a6"/>
    <polygon points="-113.0,296.1 -31.0,296.1 -72.0,367.1" fill="#e75ea2"/>
    <polygon points="-72.0,367.1 10.0,367.1 -31.0,296.1" fill="#e958a0"/>
    <polygon points="-31.0,296.1 51.0,296.1 10.0,367.1" fill="#f378b0"/>
    <polygon points="10.0,367.1 92.0,367.1 51.0,296.1" fill="#f27cb2"/>
    <polygon points="51.0,296.1 133.0,296.1 92.0,367.1" fill="#eb62a4"/>
    <polygon points="92.0,367.1 174.0,367.1 133.0,296.1" fill="#e85aa0"/>
    <polygon points="133.0,296.1 215.0,296.1 174.0,367.1" fill="#ed6aaa"/>
    <polygon points="174.0,367.1 256.0,367.1 215.0,296.1" fill="#f070ae"/>
    <polygon points="215.0,296.1 297.0,296.1 256.0,367.1" fill="#e95ca0"/>
    <polygon points="256.0,367.1 338.0,367.1 297.0,296.1" fill="#e75ea2"/>
    <polygon points="297.0,296.1 379.0,296.1 338.0,367.1" fill="#f274b0"/>
    <polygon points="338.0,367.1 420.0,367.1 379.0,296.1" fill="#f378b0"/>
    <polygon points="379.0,296.1 461.0,296.1 420.0,367.1" fill="#e85c9e"/>
    <polygon points="420.0,367.1 502.0,367.1 461.0,296.1" fill="#eb62a4"/>
    <polygon points="461.0,296.1 543.0,296.1 502.0,367.1" fill="#f06aab"/>
    <polygon points="502.0,367.1 584.0,367.1 543.0,296.1" fill="#ed6aaa"/>
    <polygon points="543.0,296.1 625.0,296.1 584.0,367.1" fill="#f47cb5"/>
    <polygon points="584.0,367.1 666.0,367.1 625.0,296.1" fill="#e95ca0"/>
    <polygon points="625.0,296.1 707.0,296.1 666.0,367.1" fill="#ea60a2"/>
    <polygon points="666.0,367.1 748.0,367.1 707.0,296.1" fill="#f274b0"/>
    <polygon points="707.0,296.1 789.0,296.1 748.0,367.1" fill="#ec66a6"/>
    <polygon points="748.0,367.1 830.0,367.1 789.0,296.1" fill="#e85c9e"/>
    <polygon points="789.0,296.1 871.0,296.1 830.0,367.1" fill="#e958a0"/>
    <polygon points="-154.0,438.1 -72.0,438.1 -113.0,367.1" fill="#e95ca0"/>
    <polygon points="-113.0,367.1 -31.0,367.1 -72.0,438.1" fill="#ea60a2"/>
    <polygon points="-72.0,438.1 10.0,438.1 -31.0,367.1" fill="#f274b0"/>
    <polygon points="-31.0,367.1 51.0,367.1 10.0,438.1" fill="#ec66a6"/>
    <polygon points="10.0,438.1 92.0,438.1 51.0,367.1" fill="#e85c9e"/>
    <polygon points="51.0,367.1 133.0,367.1 92.0,438.1" fill="#e958a0"/>
    <polygon points="92.0,438.1 174.0,438.1 133.0,367.1" fill="#f06aab"/>
    <polygon points="133.0,367.1 215.0,367.1 174.0,438.1" fill="#f27cb2"/>
    <polygon points="174.0,438.1 256.0,438.1 215.0,367.1" fill="#f47cb5"/>
    <polygon points="215.0,367.1 297.0,367.1 256.0,438.1" fill="#e85aa0"/>
    <polygon points="256.0,438.1 338.0,438.1 297.0,367.1" fill="#ea60a2"/>
    <polygon points="297.0,367.1 379.0,367.1 338.0,438.1" fill="#f070ae"/>
    <polygon points="338.0,438.1 420.0,438.1 379.0,367.1" fill="#ec66a6"/>
    <polygon points="379.0,367.1 461.0,367.1 420.0,438.1" fill="#e75ea2"/>
    <polygon points="420.0,438.1 502.0,438.1 461.0,367.1" fill="#e958a0"/>
    <polygon points="461.0,367.1 543.0,367.1 502.0,438.1" fill="#f378b0"/>
    <polygon points="502.0,438.1 584.0,438.1 543.0,367.1" fill="#f27cb2"/>
    <polygon points="543.0,367.1 625.0,367.1 584.0,438.1" fill="#eb62a4"/>
    <polygon points="584.0,438.1 666.0,438.1 625.0,367.1" fill="#e85aa0"/>
    <polygon points="625.0,367.1 707.0,367.1 666.0,438.1" fill="#ed6aaa"/>
    <polygon points="666.0,438.1 748.0,438.1 707.0,367.1" fill="#f070ae"/>
    <polygon points="707.0,367.1 789.0,367.1 748.0,438.1" fill="#e95ca0"/>
    <polygon points="748.0,438.1 830.0,438.1 789.0,367.1" fill="#e75ea2"/>
    <polygon points="789.0,367.1 871.0,367.1 830.0,438.1" fill="#f274b0"/>
    <polygon points="-154.0,509.1 -72.0,509.1 -113.0,438.1" fill="#e85aa0"/>
    <polygon points="-113.0,438.1 -31.0,438.1 -72.0,509.1" fill="#ed6aaa"/>
    <polygon points="-72.0,509.1 10.0,509.1 -31.0,438.1" fill="#f070ae"/>
    <polygon points="-31.0,438.1 51.0,438.1 10.0,509.1" fill="#e95ca0"/>
    <polygon points="10.0,509.1 92.0,509.1 51.0,438.1" fill="#e75ea2"/>
    <polygon points="51.0,438.1 133.0,438.1 92.0,509.1" fill="#f274b0"/>
    <polygon points="92.0,509.1 174.0,509.1 133.0,438.1" fill="#f378b0"/>
    <polygon points="133.0,438.1 215.0,438.1 174.0,509.1" fill="#e85c9e"/>
    <polygon points="174.0,509.1 256.0,509.1 215.0,438.1" fill="#eb62a4"/>
    <polygon points="215.0,438.1 297.0,438.1 256.0,509.1" fill="#f06aab"/>
    <polygon points="256.0,509.1 338.0,509.1 297.0,438.1" fill="#ed6aaa"/>
    <polygon points="297.0,438.1 379.0,438.1 338.0,509.1" fill="#f47cb5"/>
    <polygon points="338.0,509.1 420.0,509.1 379.0,438.1" fill="#e95ca0"/>
    <polygon points="379.0,438.1 461.0,438.1 420.0,509.1" fill="#ea60a2"/>
    <polygon points="420.0,509.1 502.0,509.1 461.0,438.1" fill="#f274b0"/>
    <polygon points="461.0,438.1 543.0,438.1 502.0,509.1" fill="#ec66a6"/>
    <polygon points="502.0,509.1 584.0,509.1 543.0,438.1" fill="#e85c9e"/>
    <polygon points="543.0,438.1 625.0,438.1 584.0,509.1" fill="#e958a0"/>
    <polygon points="584.0,509.1 666.0,509.1 625.0,438.1" fill="#f06aab"/>
    <polygon points="625.0,438.1 707.0,438.1 666.0,509.1" fill="#f27cb2"/>
    <polygon points="666.0,509.1 748.0,509.1 707.0,438.1" fill="#f47cb5"/>
    <polygon points="707.0,438.1 789.0,438.1 748.0,509.1" fill="#e85aa0"/>
    <polygon points="748.0,509.1 830.0,509.1 789.0,438.1" fill="#ea60a2"/>
    <polygon points="789.0,438.1 871.0,438.1 830.0,509.1" fill="#f070ae"/>
    <polygon points="-154.0,580.1 -72.0,580.1 -113.0,509.1" fill="#f06aab"/>
    <polygon points="-113.0,509.1 -31.0,509.1 -72.0,580.1" fill="#f27cb2"/>
    <polygon points="-72.0,580.1 10.0,580.1 -31.0,509.1" fill="#f47cb5"/>
    <polygon points="-31.0,509.1 51.0,509.1 10.0,580.1" fill="#e85aa0"/>
    <polygon points="10.0,580.1 92.0,580.1 51.0,509.1" fill="#ea60a2"/>
    <polygon points="51.0,509.1 133.0,509.1 92.0,580.1" fill="#f070ae"/>
    <polygon points="92.0,580.1 174.0,580.1 133.0,509.1" fill="#ec66a6"/>
    <polygon points="133.0,509.1 215.0,509.1 174.0,580.1" fill="#e75ea2"/>
    <polygon points="174.0,580.1 256.0,580.1 215.0,509.1" fill="#e958a0"/>
    <polygon points="215.0,509.1 297.0,509.1 256.0,580.1" fill="#f378b0"/>
    <polygon points="256.0,580.1 338.0,580.1 297.0,509.1" fill="#f27cb2"/>
    <polygon points="297.0,509.1 379.0,509.1 338.0,580.1" fill="#eb62a4"/>
    <polygon points="338.0,580.1 420.0,580.1 379.0,509.1" fill="#e85aa0"/>
    <polygon points="379.0,509.1 461.0,509.1 420.0,580.1" fill="#ed6aaa"/>
    <polygon points="420.0,580.1 502.0,580.1 461.0,509.1" fill="#f070ae"/>
    <polygon points="461.0,509.1 543.0,509.1 502.0,580.1" fill="#e95ca0"/>
    <polygon points="502.0,580.1 584.0,580.1 543.0,509.1" fill="#e75ea2"/>
    <polygon points="543.0,509.1 625.0,509.1 584.0,580.1" fill="#f274b0"/>
    <polygon points="584.0,580.1 666.0,580.1 625.0,509.1" fill="#f378b0"/>
    <polygon points="625.0,509.1 707.0,509.1 666.0,580.1" fill="#e85c9e"/>
    <polygon points="666.0,580.1 748.0,580.1 707.0,509.1" fill="#eb62a4"/>
    <polygon points="707.0,509.1 789.0,509.1 748.0,580.1" fill="#f06aab"/>
    <polygon points="748.0,580.1 830.0,580.1 789.0,509.1" fill="#ed6aaa"/>
    <polygon points="789.0,509.1 871.0,509.1 830.0,580.1" fill="#f47cb5"/>
  </g>

  <g filter="url(#iconglow)" fill="white">
    <!-- Head -->
    <circle cx="230" cy="188" r="60"/>
    <!-- Body: dome/shoulders arc — sweep=1 arcs upward, top meets head -->
    <path d="M 114,352 A 116,116 0 0 1 346,352 Z"/>
    <!-- Plus horizontal bar -->
    <rect x="303" y="152" width="66" height="24" rx="12"/>
    <!-- Plus vertical bar -->
    <rect x="324" y="131" width="24" height="66" rx="12"/>
  </g>
</svg>
